<svg width="960" height="600" version="1.1" xmlns="http://www.w3.org/2000/svg"><g></g><g transform="translate(480,300)scale(1.1510791778564453,1.1510791778564453)"><text text-anchor="middle" transform="translate(171,-10)rotate(-20)skewX(0)scale(1,1)" style="font-size: 10px; font-family: Impact; fill: rgb(173, 73, 74);">repeat</text><text text-anchor="middle" transform="translate(56,64)rotate(20)" style="font-size: 40px; font-family: Impact; fill: rgb(156, 158, 222);"></text><text text-anchor="middle" transform="translate(-234,-52)rotate(40)skewX(3.1805546814635168e-15)scale(0.9999999999999999,0.9999999999999999)" style="font-size: 40px; font-family: Impact; fill: rgb(231, 186, 82);">merge</text><text text-anchor="middle" transform="translate(135,-93)rotate(-10)skewX(0)scale(0.9999999999999999,0.9999999999999999)" style="font-size: 100px; font-family: Impact; fill: rgb(82, 84, 163);">subscribe</text><text text-anchor="middle" transform="translate(212,1)rotate(50.00000000000001)" style="font-size: 100px; font-family: Impact; fill: rgb(107, 110, 207);">map</text><text text-anchor="middle" transform="translate(-132,-89)rotate(-30)" style="font-size: 70px; font-family: Impact; fill: rgb(156, 158, 222);">filter</text><text text-anchor="middle" transform="translate(-57,20)rotate(59.99999999999999)" style="font-size: 40px; font-family: Impact; fill: rgb(99, 121, 57);">combineLatest</text><text text-anchor="middle" transform="translate(-213,98)rotate(-29.999999999999996)skewX(0)scale(1,1)" style="font-size: 40px; font-family: Impact; fill: rgb(140, 162, 82);">debounce</text><text text-anchor="middle" transform="translate(19,-160)rotate(-29.999999999999993)" style="font-size: 40px; font-family: Impact; fill: rgb(206, 219, 156);">throw</text><text text-anchor="middle" transform="translate(64,4)rotate(-10.000000000000007)scale(0.9999999999999999,0.9999999999999999)" style="font-size: 40px; font-family: Impact; fill: rgb(140, 109, 49);">retryWhen</text><text text-anchor="middle" transform="translate(-249,-1)rotate(-40)skewX(-3.1805546814635168e-15)scale(0.9999999999999999,0.9999999999999999)" style="font-size: 40px; font-family: Impact; fill: rgb(189, 158, 57);">scan</text><text text-anchor="middle" transform="translate(-79,119)rotate(-29.999999999999993)" style="font-size: 40px; font-family: Impact; fill: rgb(231, 186, 82);">flatMap</text><text text-anchor="middle" transform="translate(-3,32)rotate(-20)scale(1,1)" style="font-size: 10px; font-family: Impact; fill: rgb(231, 203, 148);">zip</text><text text-anchor="middle" transform="translate(34,57)rotate(30)" style="font-size: 10px; font-family: Impact; fill: rgb(132, 60, 57);">buffer</text><text text-anchor="middle" transform="translate(-111,30)rotate(-40)skewX(-3.1805546814635168e-15)scale(0.9999999999999999,0.9999999999999999)" style="font-size: 10px; font-family: Impact; fill: rgb(173, 73, 74);">empty</text><text text-anchor="middle" transform="translate(-138,107)rotate(-10)scale(0.9999999999999999,0.9999999999999999)" style="font-size: 10px; font-family: Impact; fill: rgb(214, 97, 107);">fromEvent</text><text text-anchor="middle" transform="translate(-181,131)rotate(-20)scale(1,1)" style="font-size: 10px; font-family: Impact; fill: rgb(231, 150, 156);">defaultIfEmpty</text><text text-anchor="middle" transform="translate(-225,123)rotate(40)skewX(3.1805546814635168e-15)scale(0.9999999999999999,0.9999999999999999)" style="font-size: 10px; font-family: Impact; fill: rgb(123, 65, 115);">delay</text><text text-anchor="middle" transform="translate(154,91)rotate(10)scale(0.9999999999999999,0.9999999999999999)" style="font-size: 10px; font-family: Impact; fill: rgb(165, 81, 148);">fromPromise</text><text text-anchor="middle" transform="translate(-120,80)rotate(-60)" style="font-size: 10px; font-family: Impact; fill: rgb(206, 109, 189);">interval</text><text text-anchor="middle" transform="translate(66,17)rotate(-20.000000000000007)" style="font-size: 10px; font-family: Impact; fill: rgb(222, 158, 214);">finally</text><text text-anchor="middle" transform="translate(-179,-16)rotate(-40)skewX(-3.1805546814635168e-15)scale(0.9999999999999999,0.9999999999999999)" style="font-size: 10px; font-family: Impact; fill: rgb(57, 59, 121);">withLatestFrom</text><text text-anchor="middle" transform="translate(-43,116)rotate(-29.999999999999993)" style="font-size: 10px; font-family: Impact; fill: rgb(82, 84, 163);">flatMapLatest</text><text text-anchor="middle" transform="translate(-19,124)rotate(40)skewX(3.1805546814635168e-15)scale(0.9999999999999999,0.9999999999999999)" style="font-size: 10px; font-family: Impact; fill: rgb(107, 110, 207);">range</text><text text-anchor="middle" transform="translate(-52,-133)rotate(0)" style="font-size: 10px; font-family: Impact; fill: rgb(156, 158, 222);">mergeAll</text><text text-anchor="middle" transform="translate(257,-59)rotate(40)skewX(3.1805546814635168e-15)scale(0.9999999999999999,0.9999999999999999)" style="font-size: 10px; font-family: Impact; fill: rgb(99, 121, 57);">publish</text><text text-anchor="middle" transform="translate(94,-49)rotate(60)scale(1,1)" style="font-size: 10px; font-family: Impact; fill: rgb(140, 162, 82);">refCount</text><text text-anchor="middle" transform="translate(32,-63)rotate(-20)" style="font-size: 10px; font-family: Impact; fill: rgb(181, 207, 107);">retry</text><text text-anchor="middle" transform="translate(-90,2)rotate(-10)scale(0.9999999999999999,0.9999999999999999)" style="font-size: 10px; font-family: Impact; fill: rgb(206, 219, 156);">sample</text><text text-anchor="middle" transform="translate(168,-171)rotate(-30)scale(1,1)" style="font-size: 10px; font-family: Impact; fill: rgb(140, 109, 49);">concat</text><text text-anchor="middle" transform="translate(193,66)rotate(50)scale(1,1)" style="font-size: 10px; font-family: Impact; fill: rgb(189, 158, 57);">skip</text><text text-anchor="middle" transform="translate(-22,-46)rotate(-30)" style="font-size: 10px; font-family: Impact; fill: rgb(231, 186, 82);">startWith</text><text text-anchor="middle" transform="translate(37,42)rotate(10)scale(0.9999999999999999,0.9999999999999999)" style="font-size: 10px; font-family: Impact; fill: rgb(231, 203, 148);">timer</text><text text-anchor="middle" transform="translate(-50,-147)rotate(10)scale(0.9999999999999999,0.9999999999999999)" style="font-size: 10px; font-family: Impact; fill: rgb(132, 60, 57);">switch</text><text text-anchor="middle" transform="translate(218,44)rotate(60)scale(1,1)" style="font-size: 10px; font-family: Impact; fill: rgb(173, 73, 74);">switchLatest</text><text text-anchor="middle" transform="translate(138,119)rotate(29.999999999999993)" style="font-size: 10px; font-family: Impact; fill: rgb(214, 97, 107);">take</text><text text-anchor="middle" transform="translate(-61,72)rotate(-20)" style="font-size: 10px; font-family: Impact; fill: rgb(231, 150, 156);">throttle</text><text text-anchor="middle" transform="translate(143,48)rotate(10)skewX(0)scale(0.9999999999999999,0.9999999999999999)" style="font-size: 10px; font-family: Impact; fill: rgb(123, 65, 115);">toArray</text><text text-anchor="middle" transform="translate(-67,143)rotate(10)scale(0.9999999999999999,0.9999999999999999)" style="font-size: 10px; font-family: Impact; fill: rgb(165, 81, 148);">toPromise</text><text text-anchor="middle" transform="translate(195,34)rotate(40)skewX(3.1805546814635168e-15)scale(0.9999999999999999,0.9999999999999999)" style="font-size: 10px; font-family: Impact; fill: rgb(206, 109, 189);">catch</text><text text-anchor="middle" transform="translate(-209,-169)rotate(0)" style="font-size: 40px; font-family: Impact; fill: rgb(181, 207, 107);">distinctUntilChanged</text></g></svg>