<!DOCTYPE svg PUBLIC "-//W3C//DTD SVG 1.1//EN" "http://www.w3.org/Graphics/SVG/1.1/DTD/svg11.dtd">
<svg xmlns="http://www.w3.org/2000/svg" xmlns:xlink="http://www.w3.org/1999/xlink" width="675" height="395" version="1.1"><defs><linearGradient x1="0%" y1="0%" x2="0%" y2="100%" id="mx-gradient-000000-1-ffffff-1-s-0"><stop offset="0%" style="stop-color:#000000"/><stop offset="100%" style="stop-color:#ffffff"/></linearGradient><filter id="dropShadow"><feGaussianBlur in="SourceAlpha" stdDeviation="1.7" result="blur"/><feOffset in="blur" dx="3" dy="3" result="offsetBlur"/><feFlood flood-color="#3D4574" flood-opacity="0.4" result="offsetColor"/><feComposite in="offsetColor" in2="offsetBlur" operator="in" result="offsetBlur"/><feBlend in="SourceGraphic" in2="offsetBlur"/></filter></defs><g transform="translate(0.5,0.5)" filter="url(#dropShadow)"><path d="M 534 134 L 433.26 134 L 433.26 107.5 L 534 107.5 Z M 424.57 134 L 404 134 L 404 107.5 L 424.57 107.5 Z M 534 99.48 L 433.26 99.48 L 433.26 73.01 L 534 73.01 Z M 424.57 99.48 L 404 99.48 L 404 73.01 L 424.57 73.01 Z M 534 64.99 L 433.26 64.99 L 433.26 38.49 L 534 38.49 Z M 424.57 64.99 L 404 64.99 L 404 38.49 L 424.57 38.49 Z M 534 30.47 L 433.26 30.47 L 433.26 4 L 534 4 Z M 424.57 30.47 L 404 30.47 L 404 4 L 424.57 4 Z" fill="#2e73b8" stroke="none" pointer-events="none"/><path d="M 534 134 L 433.26 134 L 433.26 128.66 L 534 128.66 Z M 424.57 134 L 404 134 L 404 128.66 L 424.57 128.66 Z M 534 99.48 L 433.26 99.48 L 433.26 94.17 L 534 94.17 Z M 424.57 99.48 L 404 99.48 L 404 94.17 L 424.57 94.17 Z M 534 64.99 L 433.26 64.99 L 433.26 59.65 L 534 59.65 Z M 424.57 64.99 L 404 64.99 L 404 59.65 L 424.57 59.65 Z M 534 30.47 L 433.26 30.47 L 433.26 25.13 L 534 25.13 Z M 424.57 30.47 L 404 30.47 L 404 25.13 L 424.57 25.13 Z" fill-opacity="0.3" fill="#000000" stroke="none" pointer-events="none"/><path d="M 264 134 L 163.26 134 L 163.26 107.5 L 264 107.5 Z M 154.57 134 L 134 134 L 134 107.5 L 154.57 107.5 Z M 264 99.48 L 163.26 99.48 L 163.26 73.01 L 264 73.01 Z M 154.57 99.48 L 134 99.48 L 134 73.01 L 154.57 73.01 Z M 264 64.99 L 163.26 64.99 L 163.26 38.49 L 264 38.49 Z M 154.57 64.99 L 134 64.99 L 134 38.49 L 154.57 38.49 Z M 264 30.47 L 163.26 30.47 L 163.26 4 L 264 4 Z M 154.57 30.47 L 134 30.47 L 134 4 L 154.57 4 Z" fill="#2e73b8" stroke="none" pointer-events="none"/><path d="M 264 134 L 163.26 134 L 163.26 128.66 L 264 128.66 Z M 154.57 134 L 134 134 L 134 128.66 L 154.57 128.66 Z M 264 99.48 L 163.26 99.48 L 163.26 94.17 L 264 94.17 Z M 154.57 99.48 L 134 99.48 L 134 94.17 L 154.57 94.17 Z M 264 64.99 L 163.26 64.99 L 163.26 59.65 L 264 59.65 Z M 154.57 64.99 L 134 64.99 L 134 59.65 L 154.57 59.65 Z M 264 30.47 L 163.26 30.47 L 163.26 25.13 L 264 25.13 Z M 154.57 30.47 L 134 30.47 L 134 25.13 L 154.57 25.13 Z" fill-opacity="0.3" fill="#000000" stroke="none" pointer-events="none"/><path d="M 75.96 384 L 75.96 322.99 L 134 322.99 L 134 384 Z M 75.96 314.95 L 75.96 254 L 134 254 L 134 314.95 Z M 4 314.95 L 4 254 L 62.04 254 L 62.04 314.95 Z M 4 384 L 4 322.99 L 62.04 322.99 L 62.04 384 Z" fill="#ff3333" stroke="none" pointer-events="none"/><path d="M 75.96 384 L 75.96 378.63 L 134 378.63 L 134 384 Z M 75.96 314.95 L 75.96 309.64 L 134 309.64 L 134 314.95 Z M 4 314.95 L 4 309.64 L 62.04 309.64 L 62.04 314.95 Z M 4 384 L 4 378.63 L 62.04 378.63 L 62.04 384 Z" fill-opacity="0.3" fill="#000000" stroke="none" pointer-events="none"/><rect x="4" y="254" width="0" height="0" fill="none" stroke="#3333ff" stroke-width="9" pointer-events="none"/><path d="M 33.22 301.18 C 21.64 301.18 12.82 292.31 12.82 282.07 C 12.82 270.82 21.98 262.46 33.22 262.46 C 43.43 262.46 53.21 270.44 53.21 282.07 C 53.21 291.86 44.7 301.18 33.22 301.18 Z" fill="#ffffff" stroke="none" pointer-events="none"/><path d="M 345.96 384 L 345.96 322.99 L 404 322.99 L 404 384 Z M 345.96 314.95 L 345.96 254 L 404 254 L 404 314.95 Z M 274 314.95 L 274 254 L 332.04 254 L 332.04 314.95 Z M 274 384 L 274 322.99 L 332.04 322.99 L 332.04 384 Z" fill="#2e73b8" stroke="none" pointer-events="none"/><path d="M 345.96 384 L 345.96 378.63 L 404 378.63 L 404 384 Z M 345.96 314.95 L 345.96 309.64 L 404 309.64 L 404 314.95 Z M 274 314.95 L 274 309.64 L 332.04 309.64 L 332.04 314.95 Z M 274 384 L 274 378.63 L 332.04 378.63 L 332.04 384 Z" fill-opacity="0.3" fill="#000000" stroke="none" pointer-events="none"/><rect x="274" y="254" width="0" height="0" fill="none" stroke="#3333ff" stroke-width="9" pointer-events="none"/><path d="M 303.22 301.18 C 291.64 301.18 282.82 292.31 282.82 282.07 C 282.82 270.82 291.98 262.46 303.22 262.46 C 313.43 262.46 323.21 270.44 323.21 282.07 C 323.21 291.86 314.7 301.18 303.22 301.18 Z" fill="#ffffff" stroke="none" pointer-events="none"/><path d="M 605.96 384 L 605.96 322.99 L 664 322.99 L 664 384 Z M 605.96 314.95 L 605.96 254 L 664 254 L 664 314.95 Z M 534 314.95 L 534 254 L 592.04 254 L 592.04 314.95 Z M 534 384 L 534 322.99 L 592.04 322.99 L 592.04 384 Z" fill="#2e73b8" stroke="none" pointer-events="none"/><path d="M 605.96 384 L 605.96 378.63 L 664 378.63 L 664 384 Z M 605.96 314.95 L 605.96 309.64 L 664 309.64 L 664 314.95 Z M 534 314.95 L 534 309.64 L 592.04 309.64 L 592.04 314.95 Z M 534 384 L 534 378.63 L 592.04 378.63 L 592.04 384 Z" fill-opacity="0.3" fill="#000000" stroke="none" pointer-events="none"/><rect x="534" y="254" width="0" height="0" fill="none" stroke="#3333ff" stroke-width="9" pointer-events="none"/><path d="M 563.22 301.18 C 551.64 301.18 542.82 292.31 542.82 282.07 C 542.82 270.82 551.98 262.46 563.22 262.46 C 573.43 262.46 583.21 270.44 583.21 282.07 C 583.21 291.86 574.7 301.18 563.22 301.18 Z" fill="#ffffff" stroke="none" pointer-events="none"/><path d="M 94 185 L 174 185 L 174 164 L 194 194 L 174 224 L 174 203 L 94 203 Z" fill="url(#mx-gradient-000000-1-ffffff-1-s-0)" stroke="#ffff66" stroke-width="9" stroke-miterlimit="10" transform="rotate(124,144,194)" pointer-events="none"/><path d="M 224 185 L 304 185 L 304 164 L 324 194 L 304 224 L 304 203 L 224 203 Z" fill="url(#mx-gradient-000000-1-ffffff-1-s-0)" stroke="#ffff66" stroke-width="9" stroke-miterlimit="10" transform="rotate(70,274,194)" pointer-events="none"/><path d="M 364 185 L 444 185 L 444 164 L 464 194 L 444 224 L 444 203 L 364 203 Z" fill="url(#mx-gradient-000000-1-ffffff-1-s-0)" stroke="#ffff66" stroke-width="9" stroke-miterlimit="10" transform="rotate(124,414,194)" pointer-events="none"/><path d="M 494 185 L 574 185 L 574 164 L 594 194 L 574 224 L 574 203 L 494 203 Z" fill="url(#mx-gradient-000000-1-ffffff-1-s-0)" stroke="#ffff66" stroke-width="9" stroke-miterlimit="10" transform="rotate(70,544,194)" pointer-events="none"/></g></svg>